<svg width="129" height="64" viewBox="0 0 129 64" fill="none" xmlns="http://www.w3.org/2000/svg">
<path fill-rule="evenodd" clip-rule="evenodd" d="M76.2074 63.0516C51.4249 65.0495 52.6966 20.1454 74.0804 20.0799C78.1604 20.0636 83.2243 22.217 84.0116 26.5322C85.8207 36.3417 59.1761 51.1132 76.2074 63.0516Z" fill="#FE7826"/>
<path d="M11.8822 23.3303H0.914062V59.08H11.8822V23.3303Z" fill="#07162D"/>
<path d="M21.2754 23.3386H39.4573C43.4161 23.3386 46.3834 24.2885 48.359 26.1881C50.3271 28.0878 51.3187 30.7981 51.3187 34.3108C51.3187 37.9218 50.2438 40.7467 48.0865 42.7692C45.9443 44.7999 42.6516 45.8234 38.2462 45.8234H32.2511V59.0883H21.2754V23.3386ZM32.2663 38.5769H34.9459C37.0578 38.5769 38.5414 38.2084 39.3967 37.4715C40.2445 36.7345 40.676 35.7765 40.676 34.6302C40.676 33.5084 40.3051 32.5585 39.5633 31.7807C38.8215 31.0028 37.4362 30.6097 35.3849 30.6097H32.2663V38.5769Z" fill="#07162D"/>
<path d="M91.5285 23.3303H103.579L109.839 34.3353L115.948 23.3303H127.877L116.856 40.6565L128.914 59.08H116.621L109.627 47.6001L102.633 59.08H90.4082L102.625 40.4518L91.5285 23.3303Z" fill="#07162D"/>
<path fill-rule="evenodd" clip-rule="evenodd" d="M96.5171 10.0085C96.5171 15.4701 92.1344 19.9081 86.7222 19.9081C81.3024 19.9081 76.9121 15.4782 76.9121 10.0085C76.9121 4.547 81.3024 0.117188 86.7222 0.117188C92.1344 0.117188 96.5171 4.547 96.5171 10.0085Z" fill="#FE7826"/>
</svg>
